<svg width="10" height="10" viewBox="0 0 10 10" fill="none" xmlns="http://www.w3.org/2000/svg">
<path d="M5 0C2.23863 0 0 2.23863 0 5C0 7.76137 2.23863 10 5 10C7.76137 10 10 7.76137 10 5C10 2.23863 7.76137 0 5 0ZM5 9.16666C2.69887 9.16666 0.83334 7.30113 0.83334 5C0.83334 2.69887 2.69887 0.83334 5 0.83334C7.30113 0.83334 9.16666 2.69887 9.16666 5C9.16666 7.30113 7.30113 9.16666 5 9.16666Z" fill="black"/>
<path d="M7.49982 4.58337H5.41656V2.50003C5.41656 2.26992 5.23002 2.08337 4.9999 2.08337C4.76978 2.08337 4.58324 2.26992 4.58324 2.50003V4.58337H2.50064C2.27053 4.58337 2.08398 4.76992 2.08398 5.00003C2.08398 5.23015 2.27053 5.41669 2.50064 5.41669H4.58322V7.50003C4.58322 7.73015 4.76976 7.91669 4.99988 7.91669C5.23 7.91669 5.41654 7.73015 5.41654 7.50003V5.41669H7.49978C7.7299 5.41669 7.91644 5.23015 7.91644 5.00003C7.91644 4.76992 7.72994 4.58337 7.49982 4.58337Z" fill="black"/>
</svg>
