<svg width="28" height="28" viewBox="0 0 28 28" fill="none" xmlns="http://www.w3.org/2000/svg">
<path d="M14 0C6.28062 0 0 6.28008 0 14C0 21.7199 6.28062 28 14 28C21.7194 28 28 21.7199 28 14C28 6.28008 21.7194 0 14 0ZM20.7308 15.0769H15.0769V21C15.0769 21.5945 14.5945 22.0769 14 22.0769C13.4055 22.0769 12.9231 21.5945 12.9231 21V15.0769H7.26923C6.67477 15.0769 6.19231 14.5945 6.19231 14C6.19231 13.4055 6.67477 12.9231 7.26923 12.9231H12.9231V7.53846C12.9231 6.944 13.4055 6.46154 14 6.46154C14.5945 6.46154 15.0769 6.944 15.0769 7.53846V12.9231H20.7308C21.3252 12.9231 21.8077 13.4055 21.8077 14C21.8077 14.5945 21.3252 15.0769 20.7308 15.0769Z" fill="#51629F"/>
</svg>
