<?xml version="1.0" encoding="iso-8859-1"?>
<!-- Generator: Adobe Illustrator 17.1.0, SVG Export Plug-In . SVG Version: 6.00 Build 0)  -->
<!DOCTYPE svg PUBLIC "-//W3C//DTD SVG 1.1//EN" "http://www.w3.org/Graphics/SVG/1.1/DTD/svg11.dtd">
<svg version="1.1" id="Capa_1" xmlns="http://www.w3.org/2000/svg" xmlns:xlink="http://www.w3.org/1999/xlink" x="0px" y="0px"
	 viewBox="0 0 319 319" style="enable-background:new 0 0 319 319;" xml:space="preserve">
<path d="M302.488,22H16.511C7.407,22,0,29.407,0,38.511v44.978C0,92.593,7.407,100,16.511,100H23v181.721
	C23,290.146,29.854,297,38.279,297h242.443c8.425,0,15.278-6.854,15.278-15.279V100h6.488C311.593,100,319,92.593,319,83.489V38.511
	C319,29.407,311.593,22,302.488,22z M234,158.5c0,2.486-2.015,4.5-4.5,4.5h-140c-2.485,0-4.5-2.015-4.5-4.5V117.5
	c0-2.485,2.015-4.5,4.5-4.5h140c2.485,0,4.5,2.015,4.5,4.5V158.5z"/>
<g>
</g>
<g>
</g>
<g>
</g>
<g>
</g>
<g>
</g>
<g>
</g>
<g>
</g>
<g>
</g>
<g>
</g>
<g>
</g>
<g>
</g>
<g>
</g>
<g>
</g>
<g>
</g>
<g>
</g>
</svg>
