<svg width="21" height="13" viewBox="0 0 21 13" fill="none" xmlns="http://www.w3.org/2000/svg">
<path d="M10.3193 4.16589C8.80586 4.16589 7.57129 5.21179 7.57129 6.50008C7.57129 7.78504 8.80176 8.83426 10.3193 8.83426C11.8328 8.83426 13.0674 7.78836 13.0674 6.50008C13.0674 5.21511 11.8328 4.16589 10.3193 4.16589Z" fill="#FEFFFA"/>
<path d="M10.3195 10.1889C7.88315 10.1889 5.898 8.53538 5.898 6.50002C5.898 4.46467 7.88315 2.81116 10.3195 2.81116C12.7558 2.81116 14.741 4.46467 14.741 6.50002C14.741 8.53538 12.7558 10.1889 10.3195 10.1889ZM20.4216 6.14143C17.8048 2.74143 14.2775 0.868774 10.4999 0.868774C6.72241 0.868774 3.19507 2.74143 0.578271 6.14143C0.410107 6.36057 0.410107 6.63948 0.578271 6.85862C3.19507 10.2586 6.72241 12.1313 10.4999 12.1313C14.2775 12.1313 17.8007 10.2586 20.4216 6.85862C20.5898 6.63948 20.5898 6.36057 20.4216 6.14143Z" fill="#FEFFFA"/>
</svg>
