<svg width="19" height="19" viewBox="0 0 19 19" fill="none" xmlns="http://www.w3.org/2000/svg">
<path d="M9.5 0.125C14.6777 0.125 18.875 4.32233 18.875 9.5C18.875 14.6777 14.6777 18.875 9.5 18.875C7.71942 18.875 6.00974 18.3768 4.5319 17.4517C3.93 17.0749 3.37252 16.6308 2.87048 16.1287C2.36768 15.6259 1.92306 15.0674 1.546 14.4644C0.6224 12.9874 0.125 11.2791 0.125 9.5C0.125 9.21456 0.137787 8.93053 0.163215 8.6485C0.214875 8.07553 0.72124 7.65292 1.29421 7.70458C1.86718 7.75624 2.28979 8.26261 2.23813 8.83558C2.21831 9.05542 2.20833 9.27703 2.20833 9.5C2.20833 10.8856 2.59444 12.2117 3.31242 13.3599C3.60587 13.8292 3.9521 14.264 4.34371 14.6557C4.73473 15.0467 5.16883 15.3926 5.63728 15.6858C6.78611 16.4049 8.11323 16.7917 9.5 16.7917C13.5271 16.7917 16.7917 13.5271 16.7917 9.5C16.7917 5.47292 13.5271 2.20833 9.5 2.20833C7.55067 2.20833 5.73359 2.97854 4.39369 4.29379L5.85178 4.29522C6.42708 4.29522 6.89345 4.76159 6.89345 5.33689C6.89345 5.87109 6.49132 6.31138 5.97326 6.37155L5.85178 6.37856H1.68366C1.14945 6.37856 0.709169 5.97643 0.648997 5.45837L0.641989 5.33689V1.17032C0.641989 0.595028 1.10836 0.128657 1.68366 0.128657C2.21786 0.128657 2.65814 0.530783 2.71831 1.04884L2.72532 1.17032L2.72488 3.01923C4.46469 1.19956 6.89122 0.125 9.5 0.125ZM8.71875 4.29167C9.11406 4.29167 9.4411 4.58576 9.49286 4.96695L9.5 5.07292V9.5H11.8438C12.275 9.5 12.625 9.85 12.625 10.2812C12.625 10.6766 12.3309 11.0036 11.9497 11.0554L11.8438 11.0625H8.71875C8.32344 11.0625 7.9964 10.7684 7.94464 10.3872L7.9375 10.2812V5.07292C7.9375 4.64167 8.2875 4.29167 8.71875 4.29167Z" fill="#FEFFFA"/>
</svg>
