<?xml version="1.0" encoding="iso-8859-1"?>
<!-- Generator: Adobe Illustrator 18.0.0, SVG Export Plug-In . SVG Version: 6.00 Build 0)  -->
<!DOCTYPE svg PUBLIC "-//W3C//DTD SVG 1.1//EN" "http://www.w3.org/Graphics/SVG/1.1/DTD/svg11.dtd">
<svg version="1.1" id="Capa_1" xmlns="http://www.w3.org/2000/svg" xmlns:xlink="http://www.w3.org/1999/xlink" x="0px" y="0px"
	 viewBox="0 0 297 297" style="enable-background:new 0 0 297 297;" xml:space="preserve">
<g>
	<ellipse cx="163.344" cy="25.816" rx="25.632" ry="25.816"/>
	<path d="M283.549,99.447c-0.362-5.639-5.255-9.9-10.863-9.552c-5.638,0.362-9.914,5.225-9.552,10.863
		c0.003,0.044,0.151,4.675-1.952,9.249c-2.489,5.412-7.247,8.513-14.491,9.451c-6.308-9.868-13.802-17.33-20.73-22.799
		c-23.736-18.738-57.364-26.842-86.722-21.135c-2.814-4.571-6.154-7.919-9.241-10.322c-22.464-17.485-59.426-8.794-63.566-7.745
		c-4.539,1.15-7.718,5.234-7.718,9.916v27.2c-8.798,7.833-15.774,15.469-21.49,25.86H23.639c-5.649,0-10.228,4.58-10.228,10.229
		v84.385c0,5.649,4.58,10.229,10.228,10.229h13.482c4.932,9.566,12.287,20.755,23.81,28.734v32.765
		c0,5.649,4.58,10.228,10.228,10.228h50.632c5.649,0,10.229-4.58,10.229-10.228v-2.63c4.448,0.267,8.865,0.265,13.297,0.002v2.628
		c0,5.649,4.58,10.228,10.229,10.228h50.63c5.649,0,10.228-4.58,10.228-10.228v-31.468c24.044-12.003,45.005-49.152,45.005-82.452
		c0-13.205-2.125-24.613-5.544-34.444c10.991-3.046,19.314-9.873,23.905-19.858C284.038,109.263,283.612,100.424,283.549,99.447z
		 M92.093,168.633c-5.386,0-9.752-4.541-9.752-10.145c0-5.605,4.366-10.146,9.752-10.146c5.385,0,9.752,4.541,9.752,10.146
		C101.845,164.092,97.477,168.633,92.093,168.633z"/>
</g>
<g>
</g>
<g>
</g>
<g>
</g>
<g>
</g>
<g>
</g>
<g>
</g>
<g>
</g>
<g>
</g>
<g>
</g>
<g>
</g>
<g>
</g>
<g>
</g>
<g>
</g>
<g>
</g>
<g>
</g>
</svg>
